<mxfile host="app.diagrams.net" modified="2024-04-07T22:29:54.981Z" agent="Mozilla/5.0 (Windows NT 10.0; Win64; x64) AppleWebKit/537.36 (KHTML, like Gecko) Chrome/123.0.0.0 Safari/537.36" version="24.2.2" etag="7392WFghZxQeUgqzx31A" type="github">
  <diagram name="PÃ¡gina-1" id="FHBbX2Ftzviat2LYpkoD">
    <mxGraphModel>
      <root>
        <mxCell id="0" />
        <mxCell id="1" parent="0" />
      </root>
    </mxGraphModel>
  </diagram>
</mxfile>
